<svg viewBox="0 0 1060 640" xmlns="http://www.w3.org/2000/svg" font-family="Segoe UI, Helvetica, Arial, sans-serif">
  <defs>
    <linearGradient id="bz2" x1="0" y1="0" x2="0" y2="1"><stop offset="0" stop-color="#2a3344"/><stop offset="1" stop-color="#141a25"/></linearGradient>
    <filter id="s2" x="-20%" y="-20%" width="140%" height="140%"><feDropShadow dx="0" dy="12" stdDeviation="18" flood-color="#000" flood-opacity="0.45"/></filter>
  </defs>
  <rect x="20" y="20" width="1020" height="600" rx="32" fill="url(#bz2)" stroke="#333d4e" stroke-width="2" filter="url(#s2)"/>
  <circle cx="40" cy="320" r="6" fill="#0e131c"/>
  <rect x="52" y="52" width="956" height="536" rx="10" fill="#f6f6f0"/>

  <g transform="translate(52,52)">
    <text x="20" y="42" font-size="30" font-weight="800" fill="#111">DENGAPOL DAHIBARA</text>
    <text x="936" y="40" text-anchor="end" font-size="22" fill="#222">16 Jun  14:30     85%</text>
    <line x1="0" y1="58" x2="956" y2="58" stroke="#111" stroke-width="2"/>

    <!-- amount box -->
    <rect x="20" y="66" width="916" height="92" rx="12" fill="none" stroke="#111" stroke-width="2"/>
    <text x="36" y="100" font-size="20" fill="#555">Amount to charge</text>
    <text x="916" y="138" text-anchor="end" font-size="56" font-weight="800" fill="#111">Rs 50</text>

    <!-- keypad -->
    <g font-size="34" font-weight="700" fill="#111" text-anchor="middle">
      <g><rect x="30"  y="180" width="140" height="74" rx="12" fill="none" stroke="#111" stroke-width="2"/><text x="100" y="228">7</text></g>
      <g><rect x="182" y="180" width="140" height="74" rx="12" fill="none" stroke="#111" stroke-width="2"/><text x="252" y="228">8</text></g>
      <g><rect x="334" y="180" width="140" height="74" rx="12" fill="none" stroke="#111" stroke-width="2"/><text x="404" y="228">9</text></g>
      <g><rect x="30"  y="264" width="140" height="74" rx="12" fill="none" stroke="#111" stroke-width="2"/><text x="100" y="312">4</text></g>
      <g><rect x="182" y="264" width="140" height="74" rx="12" fill="none" stroke="#111" stroke-width="2"/><text x="252" y="312">5</text></g>
      <g><rect x="334" y="264" width="140" height="74" rx="12" fill="none" stroke="#111" stroke-width="2"/><text x="404" y="312">6</text></g>
      <g><rect x="30"  y="348" width="140" height="74" rx="12" fill="none" stroke="#111" stroke-width="2"/><text x="100" y="396">1</text></g>
      <g><rect x="182" y="348" width="140" height="74" rx="12" fill="none" stroke="#111" stroke-width="2"/><text x="252" y="396">2</text></g>
      <g><rect x="334" y="348" width="140" height="74" rx="12" fill="none" stroke="#111" stroke-width="2"/><text x="404" y="396">3</text></g>
      <g><rect x="30"  y="432" width="140" height="74" rx="12" fill="none" stroke="#111" stroke-width="2"/><text x="100" y="480">C</text></g>
      <g><rect x="182" y="432" width="140" height="74" rx="12" fill="none" stroke="#111" stroke-width="2"/><text x="252" y="480">0</text></g>
      <g><rect x="334" y="432" width="140" height="74" rx="12" fill="none" stroke="#111" stroke-width="2"/><text x="404" y="480">&lt;</text></g>
    </g>

    <!-- actions -->
    <rect x="500" y="180" width="440" height="150" rx="14" fill="#111"/>
    <text x="720" y="265" text-anchor="middle" font-size="30" font-weight="700" fill="#fff">CHARGE  →  UPI QR</text>
    <rect x="500" y="346" width="440" height="90" rx="14" fill="none" stroke="#111" stroke-width="2"/>
    <text x="720" y="402" text-anchor="middle" font-size="28" font-weight="700" fill="#111">CASH PAID</text>
    <text x="720" y="470" text-anchor="middle" font-size="20" fill="#666">…or bill from the phone dashboard</text>
  </g>
  <text x="530" y="636" text-anchor="middle" font-size="16" fill="#7d8799" font-weight="600">M5Paper · on-device touch billing</text>
</svg>
