<svg viewBox="0 0 1060 640" xmlns="http://www.w3.org/2000/svg" font-family="Segoe UI, Helvetica, Arial, sans-serif">
  <defs>
    <linearGradient id="bz" x1="0" y1="0" x2="0" y2="1"><stop offset="0" stop-color="#2a3344"/><stop offset="1" stop-color="#141a25"/></linearGradient>
    <filter id="s" x="-20%" y="-20%" width="140%" height="140%"><feDropShadow dx="0" dy="12" stdDeviation="18" flood-color="#000" flood-opacity="0.45"/></filter>
  </defs>
  <rect x="20" y="20" width="1020" height="600" rx="32" fill="url(#bz)" stroke="#333d4e" stroke-width="2" filter="url(#s)"/>
  <circle cx="40" cy="320" r="6" fill="#0e131c"/>
  <rect x="52" y="52" width="956" height="536" rx="10" fill="#f6f6f0"/>

  <g transform="translate(52,52)">
    <!-- header -->
    <text x="20" y="42" font-size="30" font-weight="800" fill="#111">DENGAPOL DAHIBARA</text>
    <text x="936" y="40" text-anchor="end" font-size="22" fill="#222">16 Jun  14:30     85%</text>
    <line x1="0" y1="58" x2="956" y2="58" stroke="#111" stroke-width="2"/>

    <!-- left: amount + scan + buttons -->
    <text x="40" y="170" font-size="78" font-weight="800" fill="#0a0a0a">Rs 50.00</text>
    <text x="40" y="246" font-size="30" fill="#333">Scan with any</text>
    <text x="40" y="288" font-size="30" fill="#333">UPI app to pay</text>

    <rect x="40" y="392" width="210" height="78" rx="12" fill="#111"/>
    <text x="145" y="440" text-anchor="middle" font-size="24" font-weight="700" fill="#fff">MARK PAID</text>
    <rect x="270" y="392" width="170" height="78" rx="12" fill="#f6f6f0" stroke="#111" stroke-width="2"/>
    <text x="355" y="440" text-anchor="middle" font-size="24" font-weight="700" fill="#111">CANCEL</text>

    <!-- right: QR -->
    <g transform="translate(540,100)" fill="#111">
      <rect x="0" y="0" width="140" height="140"/><rect x="20" y="20" width="100" height="100" fill="#f6f6f0"/><rect x="40" y="40" width="60" height="60" fill="#111"/>
      <rect x="200" y="0" width="140" height="140"/><rect x="220" y="20" width="100" height="100" fill="#f6f6f0"/><rect x="240" y="40" width="60" height="60" fill="#111"/>
      <rect x="0" y="200" width="140" height="140"/><rect x="20" y="220" width="100" height="100" fill="#f6f6f0"/><rect x="40" y="240" width="60" height="60" fill="#111"/>
      <g>
        <rect x="160" y="0" width="20" height="20"/><rect x="160" y="40" width="20" height="20"/><rect x="160" y="80" width="20" height="20"/><rect x="160" y="120" width="20" height="20"/><rect x="160" y="160" width="20" height="20"/><rect x="160" y="200" width="20" height="20"/><rect x="160" y="240" width="20" height="20"/><rect x="160" y="280" width="20" height="20"/><rect x="160" y="320" width="20" height="20"/>
        <rect x="0" y="160" width="20" height="20"/><rect x="40" y="160" width="20" height="20"/><rect x="80" y="160" width="20" height="20"/><rect x="120" y="160" width="20" height="20"/><rect x="200" y="160" width="20" height="20"/><rect x="240" y="160" width="20" height="20"/><rect x="280" y="160" width="20" height="20"/><rect x="320" y="160" width="20" height="20"/>
        <rect x="180" y="20" width="20" height="20"/><rect x="220" y="180" width="20" height="20"/><rect x="260" y="60" width="20" height="20"/><rect x="300" y="100" width="20" height="20"/><rect x="180" y="220" width="20" height="20"/><rect x="240" y="260" width="20" height="20"/><rect x="300" y="300" width="20" height="20"/><rect x="280" y="200" width="20" height="20"/><rect x="200" y="240" width="20" height="20"/><rect x="320" y="200" width="20" height="20"/><rect x="260" y="320" width="20" height="20"/><rect x="300" y="240" width="20" height="20"/><rect x="220" y="300" width="20" height="20"/><rect x="240" y="200" width="20" height="20"/><rect x="280" y="260" width="20" height="20"/><rect x="200" y="300" width="20" height="20"/><rect x="320" y="280" width="20" height="20"/><rect x="180" y="100" width="20" height="20"/><rect x="260" y="160" width="20" height="20"/><rect x="300" y="340" width="20" height="20"/><rect x="180" y="340" width="20" height="20"/>
      </g>
    </g>
  </g>
  <text x="530" y="636" text-anchor="middle" font-size="16" fill="#7d8799" font-weight="600">M5Paper · payment screen (customer scans)</text>
</svg>
